<svg xmlns="http://www.w3.org/2000/svg" viewBox="0 0 1672 941" width="1672" height="941">
  <!-- Navy blue paths -->
  <g fill="#031a40">
    <path d="M 265.227 176.655 C 263.348 177.301, 260.670 178.880, 259.276 180.165 C 257.883 181.449, 256.125 183.948, 255.371 185.718 C 254.222 188.414, 254 228.215, 254 431.256 L 254 673.576 256.250 678.034 C 257.733 680.971, 259.864 683.255, 262.500 684.729 L 266.500 686.967 360.250 686.984 L 454 687 454 651 L 454 615 401.057 615 L 348.113 615 346.557 612.777 C 345.178 610.810, 345 601.127, 345 528.277 L 345 446 347 444 L 349 442 395 442 L 441 442 441 408 L 441 374 395 374 L 349 374 347 372 L 345 370 345 310 L 345 250 347 248 L 349 246 401.500 246 L 454 246 454 210.750 L 454 175.500 361.322 175.490 C 292.935 175.483, 267.748 175.788, 265.227 176.655 M 508.244 425.927 L 508.500 676.853 510.592 679.677 C 511.743 681.230, 514.172 683.513, 515.990 684.750 L 519.296 687 608.161 687 L 697.025 687 696.763 651.250 L 696.500 615.500 649 615.257 L 601.500 615.014 599.750 612.896 L 598 610.778 598 392.889 L 598 175 552.994 175 L 507.988 175 508.244 425.927 M 700 176.851 C 700 177.868, 701.559 189.681, 703.465 203.101 C 705.371 216.520, 708.963 242.350, 711.447 260.500 C 713.932 278.650, 719.360 318.250, 723.509 348.500 C 727.659 378.750, 731.697 408.225, 732.484 414 C 733.270 419.775, 736.847 445.650, 740.432 471.500 C 744.018 497.350, 748.287 528.400, 749.920 540.500 C 755.478 581.695, 768.993 680.487, 769.587 684.260 L 770.179 688.019 817.823 687.760 L 865.468 687.500 866.702 678.500 C 867.381 673.550, 871.342 644.075, 875.504 613 C 879.666 581.925, 886.637 530.175, 890.995 498 C 907.380 377.043, 915.237 318.537, 923.964 252.500 C 928.906 215.100, 933.229 182.363, 933.569 179.750 L 934.188 175 889.192 175 L 844.196 175 843.586 180.750 C 842.421 191.725, 831.548 350.369, 825.543 444 C 823.091 482.225, 820.796 517.707, 820.442 522.849 C 820.088 527.991, 819.449 531.816, 819.021 531.349 C 818.594 530.882, 817.071 512.950, 815.637 491.500 C 813.055 452.866, 800.337 275.533, 795.521 211 C 794.146 192.575, 793.016 176.938, 793.010 176.250 C 793.002 175.268, 783.028 175, 746.500 175 L 700 175 700 176.851 M 1009.662 175.672 C 1008.704 176.630, 1008.856 548, 1009.815 548 C 1010.251 548, 1012.609 546.732, 1015.054 545.182 C 1017.499 543.633, 1025.808 538.912, 1033.517 534.692 C 1048.840 526.305, 1076.472 513.249, 1090.228 507.896 L 1098.955 504.500 1098.978 339.750 L 1099 175 1054.667 175 C 1030.283 175, 1010.031 175.302, 1009.662 175.672 M 1244.600 177.740 C 1244.290 179.258, 1242.243 194.900, 1240.052 212.500 C 1236.403 241.807, 1217.015 396.128, 1209.971 451.924 C 1208.345 464.807, 1207.230 475.563, 1207.494 475.827 C 1207.758 476.091, 1211.917 475.754, 1216.737 475.079 C 1236.366 472.329, 1250.283 470.956, 1264.843 470.335 C 1274.494 469.922, 1280.312 469.275, 1280.525 468.590 C 1280.712 467.990, 1282.039 454.225, 1283.475 438 C 1287.955 387.376, 1291.042 354.590, 1291.550 352.250 C 1291.818 351.012, 1292.696 350, 1293.500 350 C 1294.304 350, 1295.193 351.012, 1295.475 352.250 C 1296.074 354.873, 1301.700 404.427, 1305.495 440.500 C 1306.941 454.250, 1308.504 466.440, 1308.968 467.590 L 1309.811 469.680 1326.156 470.303 C 1335.145 470.646, 1349.686 471.854, 1358.469 472.987 C 1367.252 474.120, 1376.087 475.310, 1378.101 475.632 L 1381.764 476.218 1381.394 473.859 C 1381.062 471.744, 1378.836 455.156, 1369 381.500 C 1367.385 369.400, 1362.653 334.075, 1358.486 303 C 1354.318 271.925, 1349.585 236.375, 1347.968 224 C 1346.351 211.625, 1344.229 195.650, 1343.253 188.500 L 1341.478 175.500 1293.321 175.240 L 1245.163 174.981 1244.600 177.740 M 1242.500 508.124 C 1233.150 508.579, 1220.618 509.345, 1214.650 509.828 C 1207.801 510.382, 1203.511 511.174, 1203.015 511.975 C 1202.584 512.674, 1201.934 516.002, 1201.571 519.372 C 1201.208 522.743, 1198.441 544.850, 1195.422 568.500 C 1192.403 592.150, 1187.932 627.250, 1185.486 646.500 C 1183.041 665.750, 1180.834 682.967, 1180.581 684.761 L 1180.122 688.022 1221.811 687.761 L 1263.500 687.500 1264.659 672.500 C 1268.064 628.415, 1276.784 520.126, 1277.523 512.750 L 1278.099 507 1268.800 507.149 C 1263.685 507.231, 1251.850 507.670, 1242.500 508.124 M 1312 507.486 C 1312 507.910, 1313.122 520.237, 1314.494 534.879 C 1317.633 568.385, 1328 684.901, 1328 686.676 C 1328 687.753, 1335.642 688, 1369 688 L 1410 688 1409.997 685.750 C 1409.995 684.513, 1407.110 662.575, 1403.586 637 C 1400.062 611.425, 1394.776 572.644, 1391.840 550.820 L 1386.500 511.140 1381 510.559 C 1372.598 509.672, 1347.413 508.145, 1328.750 507.390 C 1319.537 507.018, 1312 507.061, 1312 507.486 M 1067.500 533.973 C 1052.650 537.775, 1033.525 542.884, 1025 545.326 L 1009.500 549.766 1009.500 618.633 L 1009.500 687.500 1054.250 687.760 L 1099 688.021 1099 607.510 L 1099 527 1096.750 527.030 C 1095.513 527.047, 1082.350 530.171, 1067.500 533.973 M 487 748.500 C 487 749.583, 488.111 750, 491 750 L 495 750 495 760.500 C 495 769.167, 495.262 771, 496.500 771 C 497.738 771, 498 769.167, 498 760.500 L 498 750 502 750 C 504.889 750, 506 749.583, 506 748.500 C 506 747.272, 504.278 747, 496.500 747 C 488.722 747, 487 747.272, 487 748.500 M 514.153 756.588 L 514.500 766.176 517.306 768.588 C 519.257 770.265, 521.326 771, 524.101 771 C 527.004 771, 528.760 770.331, 530.545 768.545 L 533 766.091 533 756.545 C 533 748.727, 532.729 747, 531.500 747 C 530.280 747, 530 748.649, 530 755.845 C 530 763.144, 529.680 764.979, 528.171 766.345 C 527.165 767.255, 525.210 768, 523.826 768 C 522.442 768, 520.565 767.177, 519.655 766.171 C 518.383 764.766, 518 762.337, 518 755.671 L 518 747 515.903 747 L 513.807 747 514.153 756.588 M 557 759 C 557 768.798, 557.265 771, 558.445 771 C 559.460 771, 559.981 769.585, 560.195 766.250 L 560.500 761.500 565.500 761.187 C 568.892 760.974, 571.223 760.194, 572.750 758.762 C 573.987 757.601, 575 755.584, 575 754.280 C 575 752.976, 573.895 750.805, 572.545 749.455 C 570.439 747.348, 569.162 747, 563.545 747 L 557 747 557 759 M 584 759 C 584 769, 584.250 771, 585.500 771 C 586.633 771, 587 769.778, 587 766 L 587 761 590.009 761 C 592.543 761, 593.504 761.789, 596.095 766 C 597.787 768.750, 599.808 771, 600.586 771 C 601.364 771, 602 770.429, 602 769.732 C 602 769.035, 600.843 766.762, 599.430 764.681 L 596.859 760.899 599.430 758.877 C 602.905 756.143, 602.877 751.835, 599.365 749.073 C 597.326 747.469, 595.290 747, 590.365 747 L 584 747 584 759 M 612 759.040 L 612 771.081 620.170 770.790 C 625.599 770.597, 628.478 770.081, 628.753 769.250 C 629.058 768.329, 627.304 768, 622.083 768 L 615 768 615 764 L 615 760 621 760 C 625.667 760, 627 759.667, 627 758.500 C 627 757.333, 625.667 757, 621 757 L 615 757 615 753.500 L 615 750 621.500 750 C 626.611 750, 628 749.679, 628 748.500 C 628 747.292, 626.444 747, 620 747 L 612 747 612 759.040 M 639.455 749.455 C 638.105 750.805, 637 752.519, 637 753.263 C 637 754.008, 637.563 755.377, 638.250 756.306 C 638.938 757.234, 641.932 758.782, 644.904 759.747 C 647.877 760.711, 650.776 762.250, 651.346 763.166 C 652.093 764.366, 652.016 765.276, 651.070 766.416 C 650.344 767.291, 648.238 768, 646.368 768 C 644.218 768, 642.355 767.269, 641.268 766 C 640.326 764.900, 638.981 764, 638.278 764 C 637.575 764, 637 764.642, 637 765.427 C 637 766.213, 638.186 767.788, 639.635 768.927 C 641.138 770.109, 643.744 771, 645.701 771 C 649.244 771, 652.951 769.523, 654.235 767.600 C 654.639 766.995, 654.976 765.318, 654.985 763.872 C 654.993 762.427, 654.309 760.671, 653.464 759.970 C 652.619 759.268, 649.581 757.930, 646.714 756.995 C 642.351 755.573, 641.500 754.904, 641.500 752.898 C 641.500 750.909, 642.071 750.445, 644.844 750.180 C 646.933 749.979, 648.874 750.481, 650.019 751.517 C 651.027 752.429, 652.672 753.012, 653.676 752.813 C 655.297 752.491, 655.200 752.148, 652.795 749.725 C 650.729 747.643, 649.126 747, 646 747 C 642.990 747, 641.261 747.648, 639.455 749.455 M 664.448 748.275 C 664.161 749.023, 664.055 754.330, 664.213 760.068 L 664.500 770.500 672.750 770.790 C 679.639 771.033, 681 770.827, 681 769.540 C 681 768.311, 679.687 768, 674.500 768 L 668 768 668 764 L 668 760 674 760 C 678.667 760, 680 759.667, 680 758.500 C 680 757.333, 678.667 757, 674 757 L 668 757 668 753.500 L 668 750 674.583 750 C 679.404 750, 681.056 749.665, 680.753 748.750 C 680.482 747.930, 677.694 747.399, 672.655 747.208 C 666.889 746.988, 664.839 747.255, 664.448 748.275 M 690.917 747.413 C 690.688 747.640, 690.640 753.068, 690.812 759.476 C 691.037 767.915, 691.451 771.018, 692.312 770.734 C 693.048 770.491, 693.690 767.142, 694 761.929 L 694.500 753.516 700.454 762.292 C 704.256 767.897, 706.966 770.961, 707.954 770.772 C 709.225 770.529, 709.550 768.385, 709.782 758.738 C 710.022 748.740, 709.836 747, 708.532 747 C 707.323 747, 706.967 748.423, 706.842 753.750 C 706.754 757.462, 706.749 761.288, 706.830 762.250 C 706.910 763.212, 706.599 764, 706.138 764 C 705.677 764, 702.755 760.175, 699.644 755.500 C 696.532 750.825, 693.390 747, 692.660 747 C 691.930 747, 691.146 747.186, 690.917 747.413 M 718 748.500 C 718 749.583, 719.111 750, 722 750 L 726 750 726 760.500 C 726 769.167, 726.262 771, 727.500 771 C 728.738 771, 729 769.167, 729 760.500 L 729 750 733 750 C 735.889 750, 737 749.583, 737 748.500 C 737 747.272, 735.278 747, 727.500 747 C 719.722 747, 718 747.272, 718 748.500 M 745 759 L 745 771.081 753.170 770.790 C 758.599 770.597, 761.478 770.081, 761.753 769.250 C 762.056 768.335, 760.404 768, 755.583 768 C 749.722 768, 748.982 767.781, 748.833 766 C 748.364 760.369, 748.223 760.524, 754.269 760 C 757.442 759.725, 760.038 759.050, 760.038 758.500 C 760.038 757.950, 757.546 757.275, 754.500 757 C 751.454 756.725, 748.971 756.163, 748.981 755.750 C 748.991 755.337, 749 753.896, 749 752.548 L 749 750.095 755.250 749.798 C 758.688 749.634, 761.500 749.050, 761.500 748.500 C 761.500 747.938, 757.890 747.373, 753.250 747.210 L 745 746.919 745 759 M 787.537 749.372 C 786.232 750.677, 784.714 753.377, 784.163 755.372 C 783.536 757.644, 783.502 760.235, 784.073 762.304 C 784.575 764.121, 785.901 766.590, 787.020 767.792 C 788.140 768.993, 790.171 770.256, 791.534 770.598 C 792.898 770.940, 795.589 770.925, 797.514 770.563 C 799.662 770.160, 801.649 768.939, 802.656 767.402 C 803.867 765.553, 804.004 764.604, 803.177 763.777 C 802.351 762.951, 801.507 763.357, 799.956 765.329 C 798.683 766.948, 796.873 768, 795.362 768 C 793.990 768, 792.060 767.567, 791.071 767.038 C 790.083 766.509, 788.707 764.707, 788.013 763.032 C 787.301 761.312, 787.029 758.606, 787.388 756.810 C 787.738 755.062, 788.763 752.814, 789.667 751.816 C 790.600 750.784, 792.688 750, 794.500 750 C 796.420 750, 798.411 750.796, 799.500 752 C 800.495 753.100, 801.915 754, 802.655 754 C 803.395 754, 804 753.358, 804 752.573 C 804 751.787, 802.814 750.212, 801.365 749.073 C 799.604 747.687, 797.268 747, 794.320 747 C 791.012 747, 789.316 747.593, 787.537 749.372 M 818.241 748.325 C 816.999 749.015, 815.225 750.661, 814.299 751.983 C 813.302 753.407, 812.615 756.299, 812.615 759.076 C 812.615 761.791, 813.326 764.848, 814.304 766.341 C 815.266 767.809, 817.704 769.430, 819.973 770.110 C 822.663 770.916, 825.009 771, 827.209 770.369 C 829.158 769.810, 831.410 768.044, 832.821 765.968 C 834.741 763.143, 835.093 761.584, 834.718 757.559 C 834.348 753.598, 833.634 752.062, 831.113 749.809 C 828.829 747.769, 826.947 747.010, 824.234 747.035 C 822.180 747.055, 819.484 747.635, 818.241 748.325 M 844 759 C 844 769, 844.250 771, 845.500 771 C 846.716 771, 847 769.389, 847 762.500 C 847 757.825, 847.337 754.011, 847.750 754.025 C 848.163 754.039, 851.114 757.864, 854.309 762.525 C 857.504 767.186, 860.767 771, 861.559 771 C 862.734 771, 863 768.781, 863 759 C 863 749, 862.750 747, 861.500 747 C 860.284 747, 860 748.618, 860 755.559 C 860 760.335, 859.605 763.874, 859.106 763.565 C 858.614 763.262, 855.841 759.410, 852.943 755.006 C 849.527 749.816, 847.028 747, 845.837 747 L 844 747 844 759 M 886.448 748.275 C 886.161 749.023, 886.055 754.330, 886.213 760.068 L 886.500 770.500 894.750 770.645 C 901.211 770.759, 903 770.488, 903 769.395 C 903 768.345, 901.394 768, 896.500 768 L 890 768 890 764 L 890 760 896 760 C 900.667 760, 902 759.667, 902 758.500 C 902 757.333, 900.667 757, 896 757 L 890 757 890 753.500 L 890 750 896.583 750 C 901.404 750, 903.056 749.665, 902.753 748.750 C 902.482 747.930, 899.694 747.399, 894.655 747.208 C 888.889 746.988, 886.839 747.255, 886.448 748.275 M 912.374 748.469 C 912.063 749.277, 912.029 754.565, 912.297 760.219 L 912.785 770.500 920.392 770.792 C 926.707 771.034, 928 770.822, 928 769.542 C 928 768.324, 926.739 768, 922 768 L 916 768 916 757.500 C 916 748.738, 915.747 747, 914.469 747 C 913.626 747, 912.684 747.661, 912.374 748.469 M 949.839 747.494 C 949.166 748.167, 949.607 769.941, 950.308 770.641 C 950.615 770.949, 951.347 770.904, 951.933 770.541 C 952.520 770.179, 953 767.659, 953 764.941 L 953 760 958.500 760 C 962.722 760, 964 759.652, 964 758.500 C 964 757.348, 962.722 757, 958.500 757 L 953 757 953 753.500 L 953 750 959 750 C 963.667 750, 965 749.667, 965 748.500 C 965 747.303, 963.519 747, 957.667 747 C 953.633 747, 950.111 747.222, 949.839 747.494 M 974 754.777 C 974 759.136, 974.479 764.076, 975.065 765.756 C 975.722 767.640, 977.261 769.280, 979.081 770.034 C 980.744 770.722, 983.663 770.995, 985.767 770.659 C 987.820 770.330, 990.288 769.097, 991.250 767.920 C 992.640 766.218, 993 763.849, 993 756.389 C 993 748.710, 992.727 747, 991.500 747 C 990.280 747, 990 748.649, 990 755.845 C 990 763.144, 989.680 764.979, 988.171 766.345 C 987.165 767.255, 985.253 767.993, 983.921 767.985 C 979.211 767.955, 978.532 766.672, 978 756.799 C 977.579 748.993, 977.222 747.467, 975.750 747.187 C 974.203 746.892, 974 747.770, 974 754.777 M 1001.667 747.667 C 1000.121 749.212, 1001.247 750, 1005 750 L 1009 750 1009 760.573 L 1009 771.147 1010.750 770.812 C 1012.258 770.523, 1012.539 769.060, 1012.785 760.238 L 1013.070 750 1016.535 750 C 1018.948 750, 1020 749.545, 1020 748.500 C 1020 747.280, 1018.352 747, 1011.167 747 C 1006.308 747, 1002.033 747.300, 1001.667 747.667 M 1028.153 756.588 L 1028.500 766.176 1031.306 768.588 C 1033.257 770.265, 1035.326 771, 1038.101 771 C 1041.004 771, 1042.760 770.331, 1044.545 768.545 L 1047 766.091 1047 756.545 C 1047 748.727, 1046.729 747, 1045.500 747 C 1044.287 747, 1044 748.586, 1044 755.277 C 1044 761.151, 1043.548 764.201, 1042.443 765.777 C 1041.449 767.197, 1039.849 768, 1038.015 768 C 1036.435 768, 1034.436 767.293, 1033.571 766.429 C 1032.378 765.235, 1032 762.712, 1032 755.929 L 1032 747 1029.903 747 L 1027.807 747 1028.153 756.588 M 1057.217 758.639 C 1057.450 768.390, 1057.767 770.500, 1059 770.500 C 1060.080 770.500, 1060.585 769.170, 1060.805 765.750 L 1061.110 761 1063.805 761.018 C 1065.926 761.032, 1067.193 762.096, 1069.758 766.018 C 1071.549 768.758, 1073.687 771, 1074.508 771 C 1075.328 771, 1076 770.712, 1076 770.361 C 1076 770.009, 1074.717 767.636, 1073.149 765.087 L 1070.298 760.454 1072.649 758.680 C 1074.122 757.569, 1075 755.875, 1075 754.144 C 1075 752.625, 1074.369 750.520, 1073.598 749.466 C 1072.482 747.938, 1070.647 747.471, 1064.566 747.163 L 1056.935 746.778 1057.217 758.639 M 1087.659 749.054 C 1086.223 750.183, 1084.594 752.795, 1084.038 754.859 C 1083.094 758.366, 1083.464 761.230, 1085.517 766.287 C 1085.916 767.270, 1087.515 768.732, 1089.072 769.537 C 1090.628 770.342, 1093.543 771, 1095.550 771 C 1098.392 771, 1099.979 770.221, 1102.722 767.478 L 1106.244 763.956 1105.776 758.310 C 1105.380 753.534, 1104.819 752.227, 1102.138 749.832 C 1099.688 747.643, 1097.982 747, 1094.619 747 C 1091.746 747, 1089.384 747.697, 1087.659 749.054 M 1132.217 748.561 C 1130.991 749.419, 1129.316 751.422, 1128.494 753.011 C 1127.672 754.600, 1127 757.062, 1127 758.482 C 1127 759.902, 1127.640 762.595, 1128.421 764.466 C 1129.249 766.448, 1131.197 768.568, 1133.090 769.546 C 1135.355 770.718, 1137.618 771.050, 1140.573 770.645 C 1143.676 770.220, 1145.144 770.468, 1146.062 771.575 C 1146.913 772.600, 1147.642 772.758, 1148.334 772.066 C 1149.026 771.374, 1148.839 770.478, 1147.753 769.274 C 1146.356 767.726, 1146.334 767.253, 1147.576 765.559 C 1148.359 764.491, 1149 761.424, 1149 758.743 C 1149 756.062, 1148.537 753.003, 1147.970 751.945 C 1147.404 750.886, 1145.626 749.341, 1144.020 748.510 C 1142.414 747.680, 1139.602 747, 1137.772 747 C 1135.942 747, 1133.442 747.702, 1132.217 748.561 M 1159 756.389 C 1159 763.920, 1159.354 766.216, 1160.789 767.988 C 1161.990 769.470, 1164.070 770.366, 1167.106 770.709 C 1170.929 771.139, 1172.091 770.826, 1174.567 768.697 L 1177.500 766.176 1177.850 756.495 L 1178.199 746.815 1176.350 747.167 C 1174.753 747.471, 1174.432 748.790, 1174 756.799 C 1173.636 763.548, 1173.091 766.337, 1172 767.024 C 1171.175 767.544, 1169.288 767.976, 1167.807 767.985 C 1166.145 767.994, 1164.517 767.149, 1163.557 765.777 C 1162.452 764.201, 1162 761.151, 1162 755.277 C 1162 748.586, 1161.713 747, 1160.500 747 C 1159.273 747, 1159 748.710, 1159 756.389 M 1188 759.040 L 1188 771.081 1196.170 770.790 C 1201.419 770.604, 1204.481 770.070, 1204.737 769.297 C 1205.015 768.457, 1203.081 768.005, 1198.318 767.797 L 1191.500 767.500 1191.190 763.750 L 1190.879 760 1196.940 760 C 1201.660 760, 1203 759.668, 1203 758.500 C 1203 757.333, 1201.667 757, 1197 757 L 1191 757 1191 753.500 L 1191 750 1197.500 750 C 1202.611 750, 1204 749.679, 1204 748.500 C 1204 747.292, 1202.444 747, 1196 747 L 1188 747 1188 759.040 M 1229.917 749.782 C 1227.551 751.897, 1226.680 753.657, 1226.290 757.117 C 1225.940 760.222, 1226.295 762.669, 1227.406 764.817 C 1228.301 766.549, 1230.446 768.696, 1232.172 769.589 C 1234.180 770.627, 1236.552 771.010, 1238.760 770.652 C 1240.987 770.290, 1243.027 770.627, 1244.513 771.600 C 1246.145 772.670, 1247.016 772.784, 1247.505 771.991 C 1247.885 771.377, 1247.511 770.115, 1246.674 769.187 C 1245.351 767.720, 1245.338 767.247, 1246.576 765.559 C 1247.359 764.491, 1248 761.656, 1248 759.259 C 1248 756.862, 1247.320 753.586, 1246.490 751.980 C 1245.659 750.374, 1244.114 748.596, 1243.055 748.030 C 1241.997 747.463, 1239.309 747, 1237.082 747 C 1234.065 747, 1232.237 747.710, 1229.917 749.782 M 1257.363 748.497 C 1257.047 749.321, 1256.954 753.640, 1257.156 758.094 L 1257.524 766.193 1260.445 768.706 C 1262.909 770.826, 1264.074 771.139, 1267.894 770.709 C 1270.930 770.366, 1273.010 769.470, 1274.211 767.988 C 1275.612 766.258, 1276 763.959, 1276 757.389 C 1276 752.775, 1276.080 748.663, 1276.179 748.250 C 1276.277 747.837, 1275.602 747.355, 1274.679 747.177 C 1273.208 746.893, 1273 747.960, 1273 755.772 C 1273 763.142, 1272.682 764.977, 1271.171 766.345 C 1270.165 767.255, 1268.210 768, 1266.826 768 C 1265.442 768, 1263.565 767.177, 1262.655 766.171 C 1261.383 764.766, 1261 762.337, 1261 755.671 C 1261 748.551, 1260.726 747, 1259.469 747 C 1258.626 747, 1257.679 747.674, 1257.363 748.497 M 1286.432 748.318 C 1286.154 749.042, 1286.055 754.330, 1286.213 760.068 C 1286.446 768.547, 1286.781 770.500, 1288 770.500 C 1289.232 770.500, 1289.550 768.403, 1289.782 758.750 C 1290.024 748.641, 1289.845 747, 1288.500 747 C 1287.641 747, 1286.710 747.593, 1286.432 748.318 M 1300 759.077 L 1300 771.153 1308.169 770.827 C 1313.388 770.618, 1316.481 770.066, 1316.736 769.297 C 1317.015 768.457, 1315.081 768.005, 1310.318 767.797 L 1303.500 767.500 1303.190 763.750 L 1302.879 760 1308.940 760 C 1313.567 760, 1315 759.657, 1315 758.550 C 1315 757.486, 1313.469 757.020, 1309.250 756.800 L 1303.500 756.500 1303.187 753.250 L 1302.873 750 1309.437 750 C 1314.604 750, 1316 749.681, 1316 748.500 C 1316 747.292, 1314.444 747, 1308 747 L 1300 747 1300 759.077 M 1326 759 C 1326 769, 1326.250 771, 1327.500 771 C 1328.633 771, 1329 769.778, 1329 766 L 1329 761 1332.041 761 C 1334.610 761, 1335.566 761.777, 1338.191 766 C 1340.105 769.079, 1342.010 771, 1343.149 771 C 1344.167 771, 1345 770.744, 1345 770.430 C 1345 770.117, 1343.646 767.892, 1341.990 765.486 L 1338.980 761.111 1341.490 758.601 C 1342.871 757.220, 1344 755.150, 1344 754 C 1344 752.850, 1342.895 750.805, 1341.545 749.455 C 1339.439 747.348, 1338.162 747, 1332.545 747 L 1326 747 1326 759 M 1354 759.040 L 1354 771.081 1362.170 770.790 C 1367.419 770.604, 1370.481 770.070, 1370.737 769.297 C 1371.015 768.457, 1369.081 768.005, 1364.318 767.797 L 1357.500 767.500 1357.190 763.750 L 1356.879 760 1362.940 760 C 1367.567 760, 1369 759.657, 1369 758.550 C 1369 757.486, 1367.469 757.020, 1363.250 756.800 L 1357.500 756.500 1357.187 753.250 L 1356.873 750 1363.437 750 C 1368.604 750, 1370 749.681, 1370 748.500 C 1370 747.292, 1368.444 747, 1362 747 L 1354 747 1354 759.040 M 1382.168 748.595 C 1380.376 749.850, 1379.956 750.969, 1380.195 753.845 L 1380.500 757.500 1386.394 759.500 C 1389.636 760.600, 1392.760 762.250, 1393.336 763.166 C 1394.095 764.373, 1394.022 765.269, 1393.070 766.416 C 1392.344 767.291, 1390.238 768, 1388.368 768 C 1386.218 768, 1384.355 767.269, 1383.268 766 C 1382.326 764.900, 1380.981 764, 1380.278 764 C 1379.575 764, 1379 764.642, 1379 765.427 C 1379 766.213, 1380.186 767.788, 1381.635 768.927 C 1383.231 770.183, 1385.740 771, 1388 771 C 1392.864 771, 1397 767.821, 1397 764.082 C 1397 762.558, 1396.213 760.618, 1395.250 759.773 C 1394.287 758.928, 1392.375 757.928, 1391 757.551 C 1385.122 755.940, 1383 754.692, 1383 752.846 C 1383 751.780, 1383.995 750.564, 1385.250 750.095 C 1386.509 749.625, 1388.566 749.657, 1389.919 750.167 C 1391.249 750.668, 1392.824 751.728, 1393.419 752.521 C 1394.122 753.458, 1394.988 753.655, 1395.896 753.082 C 1397.021 752.372, 1396.787 751.696, 1394.692 749.601 C 1392.798 747.707, 1391.052 747, 1388.268 747 C 1386.165 747, 1383.420 747.718, 1382.168 748.595 M 560.193 754.250 L 560.500 758.500 563.704 758.810 C 565.466 758.980, 567.828 758.627, 568.954 758.025 C 570.091 757.416, 571 755.923, 571 754.665 C 571 753.419, 570.460 751.860, 569.800 751.200 C 569.140 750.540, 566.639 750, 564.243 750 L 559.885 750 560.193 754.250 M 587 754 L 587 758 591.300 758 C 593.665 758, 596.140 757.460, 596.800 756.800 C 597.460 756.140, 598 754.613, 598 753.407 C 598 752.201, 597.288 750.941, 596.418 750.607 C 595.548 750.273, 593.073 750, 590.918 750 L 587 750 587 754 M 817.975 752.750 C 816.244 754.943, 815.906 756.403, 816.303 759.961 C 816.636 762.937, 817.537 765.017, 819.012 766.211 C 820.227 767.195, 822.443 768, 823.936 768 C 825.481 768, 827.588 767.003, 828.826 765.686 C 830.419 763.989, 831 762.120, 831 758.686 C 831 755.333, 830.431 753.431, 829 752 C 827.778 750.778, 825.667 750, 823.573 750 C 821.026 750, 819.587 750.707, 817.975 752.750 M 1061 754 L 1061 758 1064.929 758 C 1067.167 758, 1069.533 757.324, 1070.429 756.429 C 1071.293 755.564, 1072 754.635, 1072 754.363 C 1072 754.091, 1071.534 752.998, 1070.965 751.934 C 1070.179 750.465, 1068.856 750, 1065.465 750 L 1061 750 1061 754 M 1088.975 752.750 C 1087.244 754.943, 1086.906 756.403, 1087.303 759.961 C 1087.636 762.937, 1088.537 765.017, 1090.012 766.211 C 1091.227 767.195, 1093.443 768, 1094.936 768 C 1096.555 768, 1098.621 766.968, 1100.053 765.444 C 1101.712 763.677, 1102.455 761.721, 1102.455 759.115 C 1102.455 757.040, 1101.667 754.141, 1100.704 752.671 C 1099.302 750.531, 1098.177 750, 1095.050 750 C 1091.983 750, 1090.679 750.590, 1088.975 752.750 M 1133 752 C 1131.611 753.389, 1131 755.333, 1131 758.365 C 1131 761.267, 1131.695 763.614, 1133.073 765.365 C 1134.295 766.919, 1136.141 768, 1137.573 768 C 1138.908 768, 1140 767.577, 1140 767.059 C 1140 766.541, 1139.543 765.835, 1138.984 765.490 C 1138.425 765.144, 1138.227 764.442, 1138.544 763.928 C 1138.894 763.363, 1139.912 763.418, 1141.125 764.067 C 1142.585 764.848, 1143.517 764.816, 1144.564 763.947 C 1145.354 763.291, 1146 761.071, 1146 759.012 C 1146 756.740, 1145.186 754.234, 1143.927 752.635 C 1142.409 750.704, 1140.939 750, 1138.427 750 C 1136.333 750, 1134.222 750.778, 1133 752 M 1232 752 C 1230.554 753.446, 1230 755.333, 1230 758.811 C 1230 762.271, 1230.573 764.238, 1232.039 765.811 C 1233.160 767.015, 1235.185 768, 1236.539 768 C 1237.893 768, 1239 767.640, 1239 767.200 C 1239 766.760, 1238.438 765.813, 1237.750 765.095 C 1236.729 764.028, 1237.081 763.912, 1239.680 764.459 C 1242.248 764.999, 1243.067 764.744, 1243.930 763.130 C 1244.519 762.031, 1245 759.813, 1245 758.201 C 1245 756.589, 1244.067 754.084, 1242.927 752.635 C 1241.409 750.704, 1239.939 750, 1237.427 750 C 1235.333 750, 1233.222 750.778, 1232 752 M 1329 754 L 1329 758 1332.918 758 C 1335.073 758, 1337.548 757.727, 1338.418 757.393 C 1339.337 757.040, 1340 755.618, 1340 754 C 1340 752.382, 1339.337 750.960, 1338.418 750.607 C 1337.548 750.273, 1335.073 750, 1332.918 750 L 1329 750 1329 754" fill-rule="evenodd" />
  </g>
  
  <!-- Teal paths -->
  <g fill="#00b2b6">
    <path d="M 1255 477.081 C 1248.125 477.588, 1233.500 479.134, 1222.500 480.518 C 1211.500 481.901, 1195.300 484.397, 1186.500 486.065 C 1177.700 487.733, 1162.400 491.124, 1152.500 493.601 C 1127.616 499.825, 1100.302 508.460, 1077.500 517.309 C 1072.550 519.230, 1063.325 523.041, 1057 525.778 C 1040.321 532.995, 1009.523 548.341, 1010.838 548.779 C 1011.456 548.985, 1020.633 546.675, 1031.231 543.645 C 1051.592 537.824, 1083.105 529.722, 1094 527.508 C 1097.575 526.782, 1106.125 525.008, 1113 523.566 C 1119.875 522.125, 1132.369 519.835, 1140.765 518.477 C 1149.160 517.120, 1163.244 515.115, 1172.061 514.023 C 1180.879 512.930, 1196.060 511.373, 1205.797 510.563 C 1239.168 507.787, 1273.541 506.720, 1310.500 507.311 C 1330.300 507.628, 1353.250 508.378, 1361.500 508.978 C 1369.750 509.578, 1385.050 510.977, 1395.500 512.087 C 1405.950 513.197, 1421.925 515.225, 1431 516.594 C 1440.075 517.963, 1456.725 520.902, 1468 523.125 C 1479.275 525.349, 1495.475 528.958, 1504 531.147 C 1512.525 533.335, 1525.535 536.900, 1532.912 539.068 C 1540.289 541.236, 1546.551 542.782, 1546.829 542.505 C 1547.106 542.227, 1547.146 541.831, 1546.917 541.624 C 1546.687 541.417, 1542.292 538.888, 1537.148 536.003 C 1532.004 533.118, 1521.429 527.718, 1513.648 524.002 C 1505.867 520.287, 1492.750 514.548, 1484.500 511.248 C 1476.250 507.949, 1463.875 503.416, 1457 501.176 C 1450.125 498.937, 1439.775 495.761, 1434 494.120 C 1428.225 492.479, 1416.300 489.555, 1407.500 487.621 C 1398.700 485.688, 1385.425 483.198, 1378 482.087 C 1350.440 477.967, 1335.083 476.853, 1301 476.503 C 1282.575 476.314, 1261.875 476.574, 1255 477.081 M 268.707 749.016 C 267.298 750.124, 265.637 752.571, 265.015 754.453 C 264.394 756.335, 264.173 759.404, 264.523 761.272 C 264.874 763.140, 266.163 765.926, 267.388 767.462 C 269.166 769.692, 270.656 770.357, 274.762 770.751 L 279.908 771.246 283.020 768.134 C 284.731 766.422, 285.851 764.567, 285.507 764.011 C 285.163 763.455, 284.117 763, 283.182 763 C 282.246 763, 280.919 763.900, 280.232 765 C 279.377 766.369, 277.900 767, 275.548 767 C 273.132 767, 271.652 766.341, 270.557 764.777 C 269.701 763.555, 269 760.916, 269 758.912 C 269 756.741, 269.837 754.205, 271.073 752.635 C 272.297 751.078, 274.141 750, 275.579 750 C 276.918 750, 278.962 751.091, 280.121 752.425 C 281.281 753.758, 282.853 754.610, 283.615 754.318 C 284.377 754.025, 285 753.238, 285 752.567 C 285 751.897, 283.958 750.370, 282.686 749.174 C 281.009 747.599, 279.116 747, 275.820 747 C 272.772 747, 270.424 747.665, 268.707 749.016 M 299.117 748.631 C 297.836 749.528, 296.161 751.763, 295.394 753.599 C 294.627 755.434, 294 757.895, 294 759.067 C 294 760.239, 294.736 762.748, 295.635 764.643 C 296.534 766.538, 298.537 768.743, 300.085 769.544 C 301.634 770.345, 304.543 771, 306.550 771 C 309.368 771, 310.975 770.225, 313.600 767.600 C 316.646 764.554, 317 763.625, 317 758.677 C 317 753.843, 316.616 752.770, 313.923 750.077 C 311.360 747.514, 310.061 747, 306.146 747 C 303.418 747, 300.468 747.685, 299.117 748.631 M 327 759 L 327 771 329 771 L 331 771 331 763 C 331 758.600, 331.337 755.016, 331.750 755.035 C 332.163 755.055, 334.672 758.682, 337.328 763.095 C 341.262 769.634, 342.557 771.061, 344.328 770.809 L 346.500 770.500 346.782 758.676 L 347.065 746.852 344.782 747.176 L 342.500 747.500 342.663 755.255 C 342.752 759.520, 342.440 762.772, 341.968 762.480 C 341.497 762.189, 339.015 758.587, 336.452 754.475 C 332.759 748.551, 331.296 747, 329.396 747 L 327 747 327 759 M 357.768 752.712 C 357.501 755.895, 357.505 761.313, 357.778 764.750 L 358.274 771 366.637 771 L 375 771 375 769 C 375 767.205, 374.333 767, 368.500 767 L 362 767 362 763.500 L 362 760 367.441 760 C 370.434 760, 373.162 759.547, 373.504 758.993 C 373.847 758.439, 373.536 757.784, 372.813 757.538 C 372.091 757.292, 369.475 756.946, 367 756.769 L 362.500 756.447 362.187 753.223 L 361.873 750 368.520 750 C 373.391 750, 375.056 749.666, 374.753 748.750 C 374.479 747.922, 371.625 747.403, 366.297 747.212 L 358.254 746.923 357.768 752.712 M 388.402 749.331 C 386.224 751.204, 385.603 752.741, 385.236 757.167 C 384.915 761.033, 385.262 763.607, 386.400 765.807 C 387.291 767.530, 388.886 769.404, 389.945 769.970 C 391.003 770.537, 393.733 771, 396.011 771 C 399.277 771, 400.786 770.368, 403.143 768.011 C 404.787 766.367, 405.851 764.567, 405.507 764.011 C 405.163 763.455, 404.117 763, 403.182 763 C 402.246 763, 400.919 763.900, 400.232 765 C 399.385 766.357, 397.900 767, 395.614 767 C 393.761 767, 391.684 766.325, 391 765.499 C 390.315 764.674, 389.541 762.087, 389.280 759.749 C 388.908 756.423, 389.277 754.902, 390.975 752.750 C 392.279 751.098, 394.117 750, 395.579 750 C 396.918 750, 398.962 751.091, 400.121 752.425 C 401.281 753.758, 402.853 754.610, 403.615 754.318 C 404.377 754.025, 405 753.192, 405 752.466 C 405 751.739, 403.814 750.212, 402.365 749.073 C 400.625 747.704, 398.266 747, 395.421 747 C 392.349 747, 390.333 747.670, 388.402 749.331 M 415 748.455 C 415 749.325, 416.405 750.173, 418.500 750.566 L 422 751.223 422 761.181 L 422 771.139 424.250 770.820 L 426.500 770.500 426.785 760.811 L 427.071 751.121 430.277 750.811 C 432.380 750.607, 433.598 749.898, 433.815 748.750 C 434.112 747.182, 433.150 747, 424.573 747 C 416.863 747, 415 747.283, 415 748.455 M 450.644 747.767 C 450.019 748.779, 442 769.876, 442 770.509 C 442 770.779, 442.939 771, 444.087 771 C 445.487 771, 446.546 770.013, 447.306 768 L 448.438 765 453.271 765 L 458.104 765 459.150 768 C 459.818 769.915, 460.883 771, 462.098 771 C 463.144 771, 464 770.478, 464 769.839 C 464 769.201, 462.112 763.801, 459.804 757.839 C 456.195 748.519, 455.293 747, 453.363 747 C 452.128 747, 450.905 747.345, 450.644 747.767 M 301.455 752.455 C 299.705 754.205, 299 756.006, 299 758.732 C 299 760.835, 299.701 763.555, 300.557 764.777 C 301.642 766.327, 303.135 767, 305.485 767 C 307.340 767, 309.535 766.322, 310.363 765.494 C 311.191 764.666, 312.166 763.052, 312.529 761.907 C 312.893 760.763, 312.904 758.303, 312.555 756.442 C 312.206 754.580, 310.938 752.370, 309.738 751.529 C 308.537 750.688, 306.735 750, 305.732 750 C 304.729 750, 302.805 751.105, 301.455 752.455 M 451.615 756.218 C 450.727 758.263, 450 760.175, 450 760.468 C 450 760.761, 451.350 761, 453 761 C 454.757 761, 455.981 760.482, 455.955 759.750 C 455.930 759.063, 455.307 757.150, 454.570 755.500 L 453.230 752.500 451.615 756.218" fill-rule="evenodd" />
  </g>
</svg>