<svg xmlns="http://www.w3.org/2000/svg" viewBox="0 0 1336 557" width="1336" height="557">
  <!-- Navy blue paths -->
  <g fill="#031d48">
    <path d="M 275.667 21.667 C 275.300 22.033, 275.010 134.646, 275.022 271.917 L 275.044 521.500 276.905 525.599 C 277.929 527.853, 280.282 530.778, 282.133 532.099 L 285.500 534.500 374.262 534.766 L 463.025 535.032 462.762 498.766 L 462.500 462.500 416.500 462.258 C 391.200 462.125, 369.565 461.798, 368.421 461.532 C 367.278 461.266, 365.816 459.891, 365.171 458.477 C 364.288 456.537, 364 402.508, 364 238.453 L 364 21 320.167 21 C 296.058 21, 276.033 21.300, 275.667 21.667 M 467.461 26.750 C 467.842 29.913, 471.252 55, 475.039 82.500 C 485.485 158.355, 492.633 210.718, 497.971 250.500 C 502.333 283.008, 509.948 338.735, 521.065 419.500 C 523.261 435.450, 527.528 466.725, 530.549 489 C 533.570 511.275, 536.307 530.962, 536.632 532.750 L 537.223 536 584.508 536 L 631.793 536 632.913 527.750 C 633.529 523.212, 636.064 504.200, 638.547 485.500 C 641.030 466.800, 646.408 426.975, 650.500 397 C 654.591 367.025, 660.869 320.450, 664.451 293.500 C 668.032 266.550, 672.073 236.625, 673.430 227 C 674.788 217.375, 677.740 195.550, 679.992 178.500 C 684.511 144.278, 690.244 102.171, 692.571 86.115 C 695.325 67.114, 700.985 24.525, 700.992 22.750 L 701 21 656.072 21 L 611.144 21 610.558 26.250 C 610.235 29.138, 608.184 57.375, 605.999 89 C 603.814 120.625, 601.349 155.500, 600.521 166.500 C 599.150 184.715, 598.171 198.906, 593.519 268 C 591.684 295.253, 587.005 372.612, 587.002 375.750 C 587.001 376.988, 586.596 378, 586.101 378 C 585.607 378, 584.942 374.963, 584.623 371.250 C 584.303 367.538, 583.560 357.300, 582.971 348.500 C 582.113 335.694, 569.570 159.093, 561.450 45.500 C 560.585 33.400, 559.694 22.938, 559.470 22.250 C 559.152 21.274, 548.949 21, 512.916 21 L 466.770 21 467.461 26.750 M 776 208.035 L 776 395.070 778.250 393.874 C 779.487 393.216, 786.800 389.070, 794.500 384.662 C 802.200 380.253, 816.600 372.748, 826.500 367.983 C 836.400 363.219, 849.337 357.358, 855.250 354.960 L 866 350.599 866 185.799 L 866 21 821 21 L 776 21 776 208.035 M 1011.621 23.750 C 1010.722 28.349, 1009.281 39.351, 1002.488 93.500 C 998.900 122.100, 995.082 152.025, 994.003 160 C 991.907 175.496, 978.050 283.999, 975.131 307.773 C 974.167 315.622, 973.491 322.158, 973.629 322.296 C 973.767 322.434, 981.669 321.564, 991.190 320.363 C 1000.710 319.162, 1017.050 317.617, 1027.500 316.930 C 1037.950 316.242, 1046.632 315.582, 1046.794 315.463 C 1046.955 315.343, 1049.485 288.833, 1052.415 256.552 C 1055.611 221.344, 1058.194 197.406, 1058.871 196.729 C 1059.688 195.912, 1060.302 195.902, 1061.093 196.693 C 1061.695 197.295, 1063.023 205.372, 1064.044 214.643 C 1065.066 223.915, 1067.727 249.050, 1069.958 270.500 C 1072.189 291.950, 1074.257 310.962, 1074.552 312.750 L 1075.091 316 1081.795 316.005 C 1085.483 316.008, 1096.150 316.683, 1105.500 317.505 C 1114.850 318.327, 1128.024 319.738, 1134.777 320.640 C 1141.529 321.542, 1147.288 322.045, 1147.575 321.759 C 1147.861 321.472, 1146.509 309.597, 1144.570 295.369 C 1142.631 281.141, 1138.788 252.400, 1136.029 231.500 C 1133.271 210.600, 1129.453 181.800, 1127.545 167.500 C 1125.637 153.200, 1122.275 128, 1120.072 111.500 C 1117.870 95, 1114.481 69.350, 1112.541 54.500 C 1110.601 39.650, 1108.765 26.038, 1108.462 24.250 L 1107.909 21 1060.034 21 L 1012.159 21 1011.621 23.750 M 32.001 23.123 C 30.626 23.672, 28.446 25.106, 27.155 26.310 C 21.645 31.455, 22 14.050, 22 278.802 L 22 523.704 24.250 527.010 C 25.488 528.828, 27.770 531.257, 29.323 532.408 L 32.146 534.500 127.086 534.765 L 222.025 535.030 221.762 498.765 L 221.500 462.500 168.397 462.241 L 115.294 461.983 113.397 459.887 L 111.500 457.791 111.233 375.867 L 110.966 293.943 113.437 291.472 L 115.909 289 161.955 289 L 208 289 208 255 L 208 221 163.065 221 C 138.280 221, 117.050 220.589, 115.721 220.084 C 114.396 219.580, 112.781 217.886, 112.132 216.320 C 111.261 214.215, 111.024 198.113, 111.226 154.647 L 111.500 95.822 113.861 93.911 L 116.222 92 169.111 92 L 222 92 222 57 L 222 22 128.250 22.063 C 68.450 22.104, 33.595 22.488, 32.001 23.123 M 1011.500 354.662 C 1008.750 354.828, 998.400 355.453, 988.500 356.052 C 978.600 356.650, 970.188 357.446, 969.806 357.820 C 969.425 358.194, 966.151 381.450, 962.531 409.500 C 958.911 437.550, 953.912 475.800, 951.421 494.500 C 948.931 513.200, 946.805 530.075, 946.697 532 L 946.500 535.500 988 535.500 L 1029.500 535.500 1032.234 501 C 1033.738 482.025, 1037 441.953, 1039.484 411.951 C 1041.968 381.950, 1044 356.637, 1044 355.701 C 1044 354.173, 1042.600 354.018, 1030.250 354.180 C 1022.688 354.279, 1014.250 354.496, 1011.500 354.662 M 1078 354.668 C 1078 355.210, 1078.445 360.343, 1078.988 366.076 C 1079.531 371.809, 1082.032 399.225, 1084.545 427 C 1087.058 454.775, 1090.336 490.550, 1091.830 506.500 L 1094.545 535.500 1135.233 535.718 C 1160.032 535.851, 1176.150 535.566, 1176.507 534.988 C 1177.025 534.150, 1173.415 507.028, 1161.467 422 C 1159.573 408.525, 1156.892 388.746, 1155.509 378.047 C 1154.125 367.347, 1152.657 358.293, 1152.247 357.926 C 1151.836 357.559, 1143.625 356.736, 1134 356.097 C 1124.375 355.459, 1107.838 354.655, 1097.250 354.310 C 1084.863 353.907, 1078 354.035, 1078 354.668 M 833.500 380.910 C 816.450 385.200, 796.538 390.406, 789.250 392.480 L 776 396.252 776 466.126 L 776 536 821 536 L 866 536 866 454.500 C 866 409.675, 865.663 373.025, 865.250 373.056 C 864.837 373.086, 850.550 376.621, 833.500 380.910" fill-rule="evenodd" />
  </g>
  
  <!-- Teal paths -->
  <g fill="#00b4b8">
    <path d="M 1034.500 323.007 C 1025.150 323.460, 1012.325 324.361, 1006 325.009 C 986.756 326.981, 960.795 330.854, 945.245 334.073 C 937.135 335.751, 925.100 338.474, 918.500 340.123 C 911.900 341.772, 902 344.434, 896.500 346.037 C 880.141 350.807, 863.352 356.443, 849 361.983 C 841.575 364.849, 829.875 369.669, 823 372.693 C 816.125 375.717, 804.425 381.228, 797 384.940 C 789.575 388.652, 781.757 392.453, 779.626 393.387 C 777.496 394.321, 775.982 395.315, 776.262 395.596 C 776.543 395.876, 783.216 394.262, 791.090 392.009 C 810.699 386.398, 853.407 375.773, 871.042 372.118 C 879.041 370.461, 893.441 367.738, 903.042 366.069 C 920.563 363.022, 953.853 358.529, 966 357.570 C 985.716 356.015, 1006.246 354.904, 1028.500 354.188 C 1042.250 353.745, 1060.025 353.480, 1068 353.598 C 1090.320 353.930, 1116.998 354.938, 1133 356.055 C 1140.975 356.612, 1157.175 358.215, 1169 359.618 C 1180.825 361.020, 1198.463 363.474, 1208.195 365.071 C 1217.927 366.668, 1232.327 369.338, 1240.195 371.004 C 1255.918 374.334, 1281.671 380.910, 1300.868 386.497 C 1307.671 388.477, 1313.448 389.886, 1313.705 389.628 C 1314.497 388.836, 1294.272 377.284, 1279.376 370.021 C 1271.608 366.233, 1257.883 360.214, 1248.876 356.644 C 1239.869 353.075, 1225.750 348.056, 1217.500 345.491 C 1201.374 340.477, 1181.095 335.209, 1165.848 332.072 C 1160.633 330.999, 1149.872 329.211, 1141.933 328.100 C 1133.995 326.989, 1119.625 325.413, 1110 324.599 C 1100.375 323.784, 1083.275 322.908, 1072 322.651 C 1060.725 322.394, 1043.850 322.554, 1034.500 323.007" fill-rule="evenodd" />
  </g>
</svg>